<svg width="204" height="32" viewBox="0 0 204 32" fill="none" xmlns="http://www.w3.org/2000/svg">
<path d="M100.816 22.8686V7.33199H112.726V10.1286H104.026V13.6798H109.759V16.3876H104.026V20.0721H112.814V22.8686H100.816Z" fill="#EAEDFB"/>
<path d="M113.471 22.8696L117.899 16.988L113.582 11.3059H117.102L119.648 14.7462L122.172 11.3059H125.58L121.33 16.9436L125.847 22.8696H122.304L119.581 19.1853L116.859 22.8696H113.471Z" fill="#EAEDFB"/>
<path d="M131.556 20.4275C132.072 20.4275 132.551 20.3239 132.994 20.1168C133.452 19.9096 133.887 19.5841 134.301 19.1402L136.115 21.0267C135.526 21.6778 134.818 22.1883 133.991 22.5582C133.164 22.9133 132.308 23.0909 131.423 23.0909C130.581 23.0909 129.784 22.9355 129.032 22.6248C128.294 22.3141 127.652 21.8923 127.106 21.3596C126.575 20.827 126.154 20.1981 125.844 19.4731C125.535 18.7333 125.379 17.9416 125.379 17.0982C125.379 16.2548 125.535 15.4705 125.844 14.7455C126.154 14.0057 126.575 13.3694 127.106 12.8367C127.652 12.2892 128.294 11.8601 129.032 11.5494C129.784 11.2387 130.581 11.0833 131.423 11.0833C132.338 11.0833 133.216 11.2682 134.058 11.6382C134.898 11.9933 135.614 12.4964 136.204 13.1474L134.345 15.1228C133.932 14.6641 133.489 14.3164 133.017 14.0796C132.544 13.8429 132.036 13.7245 131.489 13.7245C130.618 13.7245 129.881 14.0501 129.275 14.7011C128.685 15.3522 128.389 16.1512 128.389 17.0982C128.389 18.0452 128.693 18.8368 129.297 19.4731C129.918 20.1093 130.67 20.4275 131.556 20.4275Z" fill="#EAEDFB"/>
<path d="M137.692 22.8691V7.33248L140.726 6.66663V12.2154C141.168 11.8455 141.656 11.5644 142.186 11.372C142.733 11.1797 143.322 11.0835 143.958 11.0835C145.286 11.0835 146.378 11.5126 147.234 12.3708C148.09 13.229 148.518 14.3314 148.518 15.6779V22.8691H145.485V16.1218C145.485 15.3968 145.264 14.8123 144.821 14.3684C144.393 13.9245 143.817 13.7025 143.094 13.7025C142.592 13.7025 142.134 13.8061 141.721 14.0133C141.323 14.2056 140.991 14.4867 140.726 14.8567V22.8691H137.692Z" fill="#EAEDFB"/>
<path d="M159.426 22.8701V21.9157C158.968 22.2855 158.459 22.5668 157.899 22.7591C157.338 22.9366 156.755 23.0254 156.15 23.0254C155.338 23.0254 154.571 22.8701 153.848 22.5594C153.139 22.2486 152.519 21.8269 151.988 21.2942C151.457 20.7615 151.036 20.1326 150.726 19.4076C150.431 18.6826 150.284 17.9057 150.284 17.0771C150.284 16.2485 150.438 15.4717 150.748 14.7467C151.059 14.0216 151.479 13.3927 152.01 12.86C152.541 12.3273 153.168 11.913 153.892 11.6171C154.63 11.3064 155.412 11.151 156.238 11.151C156.799 11.151 157.345 11.2324 157.877 11.3951C158.422 11.5431 158.924 11.7651 159.382 12.061V11.3064H162.415V22.8701H159.426ZM153.272 17.0771C153.272 18.0094 153.596 18.8009 154.246 19.452C154.895 20.1031 155.692 20.4286 156.637 20.4286C157.197 20.4286 157.707 20.3324 158.164 20.14C158.637 19.9477 159.042 19.674 159.382 19.3188V14.8132C159.057 14.4728 158.651 14.2065 158.164 14.0142C157.692 13.8218 157.183 13.7256 156.637 13.7256C155.677 13.7256 154.873 14.0512 154.224 14.7023C153.589 15.3385 153.272 16.1302 153.272 17.0771Z" fill="#EAEDFB"/>
<path d="M164.802 22.8689V11.3052H167.835V12.2152C168.278 11.8453 168.765 11.5642 169.296 11.3718C169.842 11.1795 170.432 11.0833 171.067 11.0833C172.396 11.0833 173.488 11.5124 174.344 12.3706C175.2 13.2288 175.628 14.3312 175.628 15.6777V22.8689H172.595V16.1216C172.595 15.3966 172.374 14.8121 171.931 14.3682C171.503 13.9243 170.927 13.7023 170.204 13.7023C169.702 13.7023 169.244 13.8059 168.831 14.0131C168.432 14.2054 168.101 14.4865 167.835 14.8565V22.8689H164.802Z" fill="#EAEDFB"/>
<path d="M183.237 22.9354C182.426 22.9354 181.658 22.78 180.935 22.4693C180.227 22.1586 179.607 21.7369 179.075 21.2042C178.559 20.6715 178.146 20.05 177.835 19.3398C177.54 18.6148 177.394 17.8379 177.394 17.0093C177.394 16.1955 177.548 15.4334 177.858 14.7232C178.168 13.9981 178.589 13.3693 179.119 12.8366C179.651 12.3039 180.278 11.8896 181.002 11.5937C181.725 11.2829 182.5 11.1276 183.326 11.1276C183.901 11.1276 184.447 11.2089 184.964 11.3717C185.496 11.5345 185.989 11.7638 186.447 12.0598V11.3051H189.436V22.8688C189.436 24.3929 188.941 25.5693 187.952 26.3978C186.979 27.2265 185.569 27.6408 183.724 27.6408C182.839 27.6408 181.983 27.552 181.156 27.3744C180.344 27.1969 179.599 26.9379 178.921 26.5976L179.983 24.2227C180.618 24.5334 181.238 24.7629 181.843 24.9108C182.448 25.0736 183.053 25.1549 183.658 25.1549C184.558 25.1549 185.237 24.9552 185.695 24.5557C186.167 24.1709 186.403 23.6013 186.403 22.8467V21.8922C185.945 22.2326 185.444 22.4915 184.898 22.6691C184.366 22.8467 183.813 22.9354 183.237 22.9354ZM180.381 17.0093C180.381 17.9415 180.699 18.7331 181.334 19.3842C181.983 20.0353 182.772 20.3608 183.702 20.3608C184.249 20.3608 184.75 20.272 185.207 20.0944C185.665 19.9021 186.063 19.6431 186.403 19.3175V14.7676C186.078 14.442 185.68 14.1905 185.207 14.013C184.735 13.8205 184.241 13.7244 183.724 13.7244C182.794 13.7244 182.005 14.0425 181.356 14.6788C180.706 15.3151 180.381 16.0919 180.381 17.0093Z" fill="#EAEDFB"/>
<path d="M202.163 21.4262C201.455 22.0032 200.725 22.425 199.971 22.6913C199.234 22.9577 198.407 23.0909 197.492 23.0909C196.622 23.0909 195.803 22.9354 195.036 22.6247C194.282 22.314 193.626 21.8923 193.065 21.3596C192.519 20.8269 192.084 20.1981 191.759 19.4731C191.448 18.7332 191.294 17.9415 191.294 17.0981C191.294 16.2695 191.441 15.4926 191.737 14.7676C192.047 14.0278 192.467 13.3915 192.999 12.8588C193.53 12.3114 194.157 11.8823 194.88 11.5715C195.618 11.2608 196.4 11.1054 197.227 11.1054C198.038 11.1054 198.791 11.2682 199.485 11.5937C200.193 11.9045 200.798 12.3336 201.3 12.881C201.817 13.4285 202.215 14.087 202.495 14.8564C202.79 15.611 202.938 16.4322 202.938 17.32V18.1191H194.349C194.556 18.8442 194.954 19.4287 195.544 19.8726C196.135 20.3165 196.828 20.5384 197.625 20.5384C198.127 20.5384 198.6 20.457 199.042 20.2942C199.485 20.1314 199.862 19.9021 200.171 19.6062L202.163 21.4262ZM197.16 13.6135C196.467 13.6135 195.869 13.828 195.368 14.2572C194.865 14.6715 194.519 15.2338 194.326 15.944H199.971C199.78 15.2633 199.426 14.7085 198.909 14.2793C198.407 13.8354 197.825 13.6135 197.16 13.6135Z" fill="#EAEDFB"/>
<path d="M54.4 22.8701V7.33337H57.61V20.029H66.0887V22.8701H54.4Z" fill="#BEF102"/>
<path d="M77.943 21.4263C77.2346 22.0034 76.504 22.425 75.7514 22.6914C75.0135 22.9577 74.187 23.0909 73.272 23.0909C72.4012 23.0909 71.5821 22.9356 70.8147 22.6249C70.062 22.3141 69.4053 21.8924 68.8445 21.3597C68.2984 20.827 67.863 20.1981 67.5383 19.4731C67.2285 18.7332 67.0734 17.9417 67.0734 17.0982C67.0734 16.2696 67.2211 15.4928 67.5162 14.7678C67.8261 14.0279 68.2468 13.3916 68.778 12.8589C69.3093 12.3115 69.9366 11.8824 70.6597 11.5716C71.3977 11.2609 72.1799 11.1055 73.0063 11.1055C73.818 11.1055 74.5707 11.2683 75.2644 11.5938C75.9727 11.9045 76.5778 12.3337 77.0796 12.8811C77.5962 13.4286 77.9946 14.087 78.275 14.8565C78.5702 15.6112 78.7178 16.4324 78.7178 17.3202V18.1192H70.1284C70.335 18.8442 70.7335 19.4287 71.3239 19.8726C71.9142 20.3165 72.6078 20.5385 73.4047 20.5385C73.9066 20.5385 74.3788 20.4571 74.8215 20.2944C75.2644 20.1316 75.6406 19.9022 75.9506 19.6063L77.943 21.4263ZM72.9399 13.6136C72.2463 13.6136 71.6486 13.8282 71.1468 14.2572C70.6449 14.6715 70.2982 15.2338 70.1063 15.9441H75.7514C75.5595 15.2634 75.2053 14.7085 74.6888 14.2795C74.187 13.8356 73.604 13.6136 72.9399 13.6136Z" fill="#BEF102"/>
<path d="M81.7149 19.6078V13.8592H79.3461V11.3067H81.7149V8.35476L84.7477 7.66671V11.3067H88.024V13.8592H84.7477V18.9863C84.7477 19.5338 84.8658 19.9185 85.1019 20.1405C85.3381 20.3623 85.7513 20.4733 86.3416 20.4733C86.622 20.4733 86.8876 20.4586 87.1386 20.429C87.3895 20.3846 87.6625 20.3105 87.9577 20.207V22.6929C87.633 22.7964 87.2419 22.8778 86.7844 22.937C86.3268 23.011 85.9358 23.048 85.6111 23.048C84.3271 23.048 83.353 22.7594 82.6889 22.1823C82.0396 21.5905 81.7149 20.7323 81.7149 19.6078Z" fill="#BEF102"/>
<path d="M88.7676 21.4941L90.2729 19.4743C90.9518 19.9182 91.5937 20.2512 92.1988 20.4731C92.8039 20.6802 93.409 20.7839 94.0141 20.7839C94.693 20.7839 95.2316 20.6729 95.6302 20.4509C96.0434 20.2289 96.25 19.9331 96.25 19.5631C96.25 19.2672 96.1319 19.0304 95.8958 18.8528C95.6745 18.6754 95.3128 18.5496 94.8111 18.4756L92.5973 18.1427C91.4609 17.9651 90.5902 17.5951 89.9851 17.0329C89.3947 16.4706 89.0996 15.7233 89.0996 14.7911C89.0996 13.6814 89.535 12.7936 90.4057 12.1277C91.2765 11.4619 92.4423 11.1289 93.9034 11.1289C94.7446 11.1289 95.5637 11.2547 96.3607 11.5063C97.1577 11.743 97.9177 12.0981 98.6408 12.5716L97.1798 14.5249C96.5452 14.1549 95.9401 13.8811 95.3645 13.7036C94.7889 13.5112 94.206 13.4151 93.6156 13.4151C93.0696 13.4151 92.6269 13.5186 92.2874 13.7258C91.9627 13.9329 91.8004 14.2066 91.8004 14.547C91.8004 14.8577 91.9184 15.1018 92.1545 15.2794C92.4055 15.4422 92.8113 15.5606 93.3721 15.6345L95.5859 15.9675C96.7075 16.1302 97.5709 16.5002 98.176 17.0773C98.7959 17.6544 99.1058 18.3868 99.1058 19.2746C99.1058 19.822 98.9729 20.3326 98.7073 20.806C98.4564 21.2648 98.1095 21.6643 97.6668 22.0046C97.224 22.3449 96.6927 22.6113 96.0729 22.8036C95.4531 22.9959 94.7816 23.0922 94.0584 23.0922C93.0105 23.0922 92.0291 22.959 91.1141 22.6927C90.199 22.4115 89.4169 22.012 88.7676 21.4941Z" fill="#BEF102"/>
<path fill-rule="evenodd" clip-rule="evenodd" d="M19.6405 0.473955C18.4137 0.16434 17.1301 0 15.8087 0C7.07777 0 0 7.17396 0 16.0235C0 24.4572 6.42821 31.3691 14.5893 32C14.5913 31.798 14.6044 31.5943 14.6295 31.3899L14.98 28.5233C8.54043 28.0912 3.44916 22.66 3.44916 16.0235C3.44916 9.10477 8.98269 3.49603 15.8087 3.49603C16.4529 3.49603 17.0855 3.54599 17.7031 3.64228L19.6405 0.473955Z" fill="url(#paint0_linear_14290_156610)"/>
<path d="M29.8574 26.0306C31.1017 26.5301 32.4581 26.8046 33.8777 26.8046C39.9099 26.8046 44.8 21.848 44.8 15.7339C44.8 9.61964 39.9099 4.66309 33.8777 4.66309C32.9741 4.66309 32.0962 4.77428 31.2566 4.9839L30.7854 8.83594C31.7277 8.40125 32.7748 8.15912 33.8777 8.15912C38.0049 8.15912 41.3508 11.5504 41.3508 15.7339C41.3508 19.9173 38.0049 23.3086 33.8777 23.3086C33.1269 23.3086 32.402 23.1964 31.7182 22.9876L29.8574 26.0306Z" fill="url(#paint1_linear_14290_156610)"/>
<path d="M32.4966 13.2271C32.6054 13.0491 32.4792 12.8193 32.2728 12.8193H25.9891C25.8307 12.8193 25.7081 12.6787 25.7276 12.5194L27.1108 1.20967C27.1456 0.925365 26.7743 0.792621 26.6254 1.03612L15.7496 18.8209C15.6407 18.9989 15.767 19.2287 15.9735 19.2287H22.2572C22.4155 19.2287 22.5381 19.3693 22.5186 19.5286L21.1354 30.8383C21.1007 31.1227 21.4719 31.2554 21.6208 31.0118L32.4966 13.2271Z" fill="#BEF102"/>
<defs>
<linearGradient id="paint0_linear_14290_156610" x1="9.82028" y1="0" x2="9.82028" y2="32" gradientUnits="userSpaceOnUse">
<stop offset="0.39361" stop-color="#EAEDFB"/>
<stop offset="1" stop-color="#EAEDFB" stop-opacity="0"/>
</linearGradient>
<linearGradient id="paint1_linear_14290_156610" x1="37.3287" y1="4.66309" x2="37.3287" y2="26.8046" gradientUnits="userSpaceOnUse">
<stop stop-color="#EAEDFB" stop-opacity="0"/>
<stop offset="0.540292" stop-color="#EAEDFB"/>
</linearGradient>
</defs>
</svg>
