<svg width="166" height="24" viewBox="0 0 166 24" fill="none" xmlns="http://www.w3.org/2000/svg">
<path d="M1.11861 17V6.81818H4.74787C5.5367 6.81818 6.19129 6.95407 6.71165 7.22585C7.23532 7.49763 7.62642 7.87382 7.88494 8.3544C8.14347 8.83168 8.27273 9.38352 8.27273 10.0099C8.27273 10.633 8.14181 11.1816 7.87997 11.6555C7.62145 12.1262 7.23035 12.4924 6.70668 12.7543C6.18632 13.0161 5.53172 13.147 4.7429 13.147H1.99361V11.8246H4.60369C5.10085 11.8246 5.50521 11.7533 5.81676 11.6108C6.13163 11.4683 6.36198 11.2611 6.50781 10.9893C6.65365 10.7176 6.72656 10.3911 6.72656 10.0099C6.72656 9.62547 6.65199 9.29238 6.50284 9.01065C6.35701 8.72893 6.12666 8.51349 5.81179 8.36435C5.50024 8.21188 5.09091 8.13565 4.58381 8.13565H2.65483V17H1.11861ZM6.14489 12.4062L8.66051 17H6.91051L4.4446 12.4062H6.14489ZM12.245 17.169C11.7611 17.169 11.3236 17.0795 10.9325 16.9006C10.5414 16.7183 10.2315 16.4548 10.0028 16.1101C9.77746 15.7654 9.66477 15.3428 9.66477 14.8423C9.66477 14.4115 9.74763 14.0568 9.91335 13.7784C10.0791 13.5 10.3028 13.2796 10.5845 13.1172C10.8662 12.9548 11.1811 12.8321 11.5291 12.7493C11.8771 12.6664 12.2318 12.6035 12.593 12.5604C13.0504 12.5073 13.4216 12.4643 13.7067 12.4311C13.9917 12.3946 14.1989 12.3366 14.3281 12.2571C14.4574 12.1776 14.522 12.0483 14.522 11.8693V11.8345C14.522 11.4003 14.3994 11.0639 14.1541 10.8253C13.9122 10.5866 13.5509 10.4673 13.0703 10.4673C12.5698 10.4673 12.1754 10.5784 11.8871 10.8004C11.602 11.0192 11.4048 11.2628 11.2955 11.5312L9.89844 11.2131C10.0642 10.7491 10.3061 10.3745 10.6243 10.0895C10.9458 9.80114 11.3153 9.59233 11.733 9.46307C12.1506 9.33049 12.5897 9.2642 13.0504 9.2642C13.3554 9.2642 13.6785 9.30066 14.0199 9.37358C14.3646 9.44318 14.6861 9.57244 14.9844 9.76136C15.286 9.95028 15.5329 10.2204 15.7251 10.5717C15.9174 10.9197 16.0135 11.3722 16.0135 11.929V17H14.5618V15.956H14.5021C14.406 16.1482 14.2618 16.3371 14.0696 16.5227C13.8774 16.7083 13.6304 16.8625 13.3288 16.9851C13.0272 17.1077 12.666 17.169 12.245 17.169ZM12.5682 15.9759C12.9792 15.9759 13.3305 15.8946 13.6222 15.7322C13.9171 15.5698 14.1409 15.3577 14.2933 15.0959C14.4491 14.8307 14.527 14.5473 14.527 14.2457V13.2614C14.474 13.3144 14.3712 13.3641 14.2188 13.4105C14.0696 13.4536 13.8989 13.4917 13.7067 13.5249C13.5144 13.5547 13.3272 13.5829 13.1449 13.6094C12.9626 13.6326 12.8101 13.6525 12.6875 13.669C12.3991 13.7055 12.1357 13.7668 11.897 13.853C11.6617 13.9392 11.4728 14.0634 11.3303 14.2259C11.1911 14.3849 11.1214 14.5971 11.1214 14.8622C11.1214 15.2301 11.2573 15.5085 11.5291 15.6974C11.8009 15.883 12.1473 15.9759 12.5682 15.9759ZM21.5581 9.36364V10.5568H17.3869V9.36364H21.5581ZM18.5055 7.53409H19.992V14.7578C19.992 15.0462 20.0351 15.2633 20.1213 15.4091C20.2074 15.5516 20.3185 15.6494 20.4544 15.7024C20.5936 15.7521 20.7444 15.777 20.9068 15.777C21.0261 15.777 21.1305 15.7687 21.22 15.7521C21.3095 15.7356 21.3791 15.7223 21.4288 15.7124L21.6973 16.9403C21.6111 16.9735 21.4885 17.0066 21.3294 17.0398C21.1703 17.0762 20.9714 17.0961 20.7328 17.0994C20.3417 17.1061 19.9771 17.0365 19.639 16.8906C19.301 16.7448 19.0275 16.5194 18.8187 16.2145C18.6099 15.9096 18.5055 15.5268 18.5055 15.0661V7.53409ZM26.4116 17.1541C25.6592 17.1541 25.0112 16.9934 24.4677 16.6719C23.9274 16.3471 23.5098 15.8913 23.2148 15.3047C22.9232 14.7147 22.7773 14.0237 22.7773 13.2315C22.7773 12.4493 22.9232 11.7599 23.2148 11.1634C23.5098 10.5668 23.9208 10.1011 24.4478 9.76633C24.9781 9.43158 25.5979 9.2642 26.3072 9.2642C26.738 9.2642 27.1557 9.33546 27.56 9.47798C27.9644 9.6205 28.3273 9.84422 28.6488 10.1491C28.9703 10.4541 29.2238 10.8501 29.4094 11.3374C29.5951 11.8213 29.6879 12.4096 29.6879 13.1023V13.6293H23.6175V12.5156H28.2312C28.2312 12.1245 28.1516 11.7782 27.9925 11.4766C27.8335 11.1716 27.6097 10.9313 27.3214 10.7557C27.0363 10.58 26.7016 10.4922 26.3171 10.4922C25.8995 10.4922 25.5349 10.5949 25.2234 10.8004C24.9151 11.0026 24.6765 11.2678 24.5075 11.5959C24.3417 11.9207 24.2589 12.2737 24.2589 12.6548V13.5249C24.2589 14.0353 24.3484 14.4695 24.5273 14.8274C24.7096 15.1854 24.9632 15.4588 25.288 15.6477C25.6128 15.8333 25.9923 15.9261 26.4265 15.9261C26.7082 15.9261 26.9651 15.8864 27.1971 15.8068C27.4291 15.724 27.6296 15.6013 27.7987 15.4389C27.9677 15.2765 28.0969 15.076 28.1864 14.8374L29.5934 15.0909C29.4807 15.5052 29.2785 15.8681 28.9869 16.1797C28.6985 16.4879 28.3356 16.7282 27.8981 16.9006C27.4639 17.0696 26.9684 17.1541 26.4116 17.1541ZM39.8796 13.8331V9.36364H41.3711V17H39.9094V15.6776H39.8299C39.6542 16.0852 39.3725 16.425 38.9847 16.6967C38.6003 16.9652 38.1213 17.0994 37.5479 17.0994C37.0574 17.0994 36.6232 16.9917 36.2454 16.7763C35.8709 16.5575 35.5759 16.2344 35.3604 15.8068C35.1483 15.3793 35.0423 14.8506 35.0423 14.2209V9.36364H36.5288V14.0419C36.5288 14.5623 36.6729 14.9766 36.9613 15.2848C37.2496 15.593 37.6242 15.7472 38.0849 15.7472C38.3633 15.7472 38.64 15.6776 38.9151 15.5384C39.1935 15.3991 39.4239 15.1887 39.6062 14.907C39.7918 14.6252 39.8829 14.2673 39.8796 13.8331ZM49.0907 11.228L47.7434 11.4666C47.6871 11.2943 47.5976 11.1302 47.475 10.9744C47.3556 10.8187 47.1932 10.6911 46.9877 10.5916C46.7823 10.4922 46.5254 10.4425 46.2172 10.4425C45.7962 10.4425 45.4449 10.5369 45.1632 10.7259C44.8815 10.9115 44.7406 11.1518 44.7406 11.4467C44.7406 11.7019 44.835 11.9074 45.024 12.0632C45.2129 12.219 45.5178 12.3466 45.9387 12.446L47.1518 12.7244C47.8545 12.8868 48.3781 13.1371 48.7228 13.4751C49.0675 13.8132 49.2399 14.2524 49.2399 14.7926C49.2399 15.25 49.1073 15.6577 48.8422 16.0156C48.5803 16.3703 48.2141 16.6487 47.7434 16.8509C47.2761 17.053 46.7342 17.1541 46.1177 17.1541C45.2626 17.1541 44.5649 16.9718 44.0247 16.6072C43.4844 16.2393 43.153 15.7173 43.0304 15.0412L44.4672 14.8224C44.5566 15.197 44.7406 15.4804 45.019 15.6726C45.2974 15.8615 45.6603 15.956 46.1078 15.956C46.595 15.956 46.9844 15.8549 47.2761 15.6527C47.5678 15.4472 47.7136 15.197 47.7136 14.902C47.7136 14.6634 47.6241 14.4628 47.4451 14.3004C47.2695 14.138 46.9993 14.0154 46.6348 13.9325L45.3422 13.6491C44.6296 13.4867 44.1026 13.2282 43.7612 12.8736C43.4231 12.5189 43.2541 12.0698 43.2541 11.5263C43.2541 11.0755 43.38 10.6811 43.6319 10.343C43.8838 10.005 44.2318 9.74148 44.676 9.55256C45.1201 9.36032 45.6288 9.2642 46.2022 9.2642C47.0275 9.2642 47.6771 9.44318 48.1511 9.80114C48.6251 10.1558 48.9383 10.6314 49.0907 11.228ZM57.796 17.1541C57.0801 17.1541 56.4553 16.9901 55.9217 16.6619C55.3881 16.3338 54.9738 15.8748 54.6788 15.2848C54.3838 14.6948 54.2363 14.0054 54.2363 13.2166C54.2363 12.4245 54.3838 11.7318 54.6788 11.1385C54.9738 10.5452 55.3881 10.0845 55.9217 9.75639C56.4553 9.42827 57.0801 9.2642 57.796 9.2642C58.5119 9.2642 59.1367 9.42827 59.6703 9.75639C60.2039 10.0845 60.6182 10.5452 60.9132 11.1385C61.2082 11.7318 61.3556 12.4245 61.3556 13.2166C61.3556 14.0054 61.2082 14.6948 60.9132 15.2848C60.6182 15.8748 60.2039 16.3338 59.6703 16.6619C59.1367 16.9901 58.5119 17.1541 57.796 17.1541ZM57.801 15.9062C58.265 15.9062 58.6494 15.7836 58.9544 15.5384C59.2593 15.2931 59.4847 14.9666 59.6305 14.5589C59.7797 14.1513 59.8542 13.7022 59.8542 13.2116C59.8542 12.7244 59.7797 12.277 59.6305 11.8693C59.4847 11.4583 59.2593 11.1286 58.9544 10.88C58.6494 10.6314 58.265 10.5071 57.801 10.5071C57.3336 10.5071 56.9458 10.6314 56.6376 10.88C56.3327 11.1286 56.1056 11.4583 55.9565 11.8693C55.8107 12.277 55.7377 12.7244 55.7377 13.2116C55.7377 13.7022 55.8107 14.1513 55.9565 14.5589C56.1056 14.9666 56.3327 15.2931 56.6376 15.5384C56.9458 15.7836 57.3336 15.9062 57.801 15.9062ZM64.5014 12.4659V17H63.0149V9.36364H64.4418V10.6065H64.5362C64.7119 10.2022 64.987 9.87737 65.3615 9.6321C65.7393 9.38684 66.215 9.2642 66.7884 9.2642C67.3087 9.2642 67.7644 9.37358 68.1555 9.59233C68.5466 9.80777 68.8499 10.1293 69.0653 10.5568C69.2808 10.9844 69.3885 11.513 69.3885 12.1428V17H67.902V12.3217C67.902 11.7682 67.7578 11.3357 67.4695 11.0241C67.1811 10.7093 66.785 10.5518 66.2812 10.5518C65.9366 10.5518 65.63 10.6264 65.3615 10.7756C65.0964 10.9247 64.8859 11.1435 64.7301 11.4318C64.5777 11.7169 64.5014 12.0616 64.5014 12.4659Z" fill="white"/>
<path d="M98.8277 6.72481H108.028V8.42405H104.406V18.003H102.42V8.42405H98.8125L98.8277 6.72481ZM107.634 9.83759H109.332V11.4165H109.362C109.423 11.191 109.529 10.9804 109.681 10.7699C109.832 10.5594 110.014 10.3639 110.242 10.1985C110.454 10.018 110.696 9.8827 110.969 9.77744C111.227 9.67217 111.5 9.61202 111.773 9.61202C111.985 9.61202 112.136 9.62706 112.212 9.62706C112.288 9.6421 112.379 9.65714 112.455 9.65714V11.3865C112.333 11.3564 112.197 11.3413 112.061 11.3263C111.924 11.3113 111.803 11.2962 111.666 11.2962C111.363 11.2962 111.075 11.3564 110.802 11.4767C110.53 11.597 110.302 11.7774 110.09 12.003C109.893 12.2436 109.726 12.5293 109.605 12.8752C109.484 13.221 109.423 13.6271 109.423 14.0782V17.9579H107.604L107.634 9.83759ZM120.791 18.003H119.003V16.8601H118.973C118.745 17.2812 118.412 17.597 117.972 17.8526C117.533 18.1083 117.078 18.2286 116.623 18.2286C115.547 18.2286 114.759 17.9729 114.274 17.4316C113.789 16.9053 113.546 16.0932 113.546 15.0256V9.83759H115.365V14.8451C115.365 15.5669 115.501 16.0782 115.789 16.3639C116.062 16.6646 116.456 16.815 116.957 16.815C117.335 16.815 117.654 16.7549 117.911 16.6346C118.169 16.5143 118.381 16.3639 118.533 16.1684C118.7 15.9729 118.806 15.7323 118.882 15.4616C118.957 15.191 118.988 14.8902 118.988 14.5744V9.83759H120.807V18.003H120.791ZM123.884 15.3865C123.944 15.9128 124.141 16.2737 124.49 16.4992C124.839 16.7098 125.263 16.815 125.748 16.815C125.915 16.815 126.112 16.8 126.324 16.7699C126.536 16.7398 126.749 16.6947 126.93 16.6195C127.127 16.5444 127.279 16.4391 127.4 16.2887C127.522 16.1383 127.582 15.9579 127.567 15.7323C127.552 15.5068 127.476 15.3113 127.309 15.1609C127.143 15.0105 126.946 14.9053 126.703 14.8C126.461 14.7098 126.173 14.6346 125.854 14.5744C125.536 14.5143 125.218 14.4391 124.884 14.3639C124.551 14.2887 124.217 14.1985 123.899 14.0932C123.581 13.988 123.308 13.8526 123.05 13.6571C122.807 13.4767 122.595 13.2511 122.459 12.9654C122.307 12.6797 122.231 12.3489 122.231 11.9278C122.231 11.4767 122.338 11.1158 122.565 10.815C122.777 10.5143 123.065 10.2737 123.399 10.0932C123.732 9.91278 124.111 9.77744 124.52 9.70225C124.93 9.62706 125.324 9.59698 125.687 9.59698C126.112 9.59698 126.521 9.6421 126.9 9.73233C127.279 9.82255 127.643 9.95789 127.946 10.1684C128.264 10.3639 128.522 10.6346 128.719 10.9504C128.931 11.2662 129.053 11.6571 129.113 12.1083H127.218C127.127 11.6722 126.93 11.3865 126.627 11.2361C126.309 11.0857 125.96 11.0105 125.551 11.0105C125.43 11.0105 125.263 11.0256 125.096 11.0406C124.914 11.0707 124.763 11.1007 124.596 11.1609C124.445 11.221 124.308 11.3113 124.202 11.4165C124.096 11.5218 124.035 11.6722 124.035 11.8526C124.035 12.0782 124.111 12.2436 124.263 12.3789C124.414 12.5143 124.611 12.6195 124.869 12.7248C125.111 12.815 125.399 12.8902 125.718 12.9504C126.036 13.0105 126.37 13.0857 126.703 13.1609C127.037 13.2361 127.355 13.3263 127.673 13.4316C127.991 13.5368 128.279 13.6722 128.522 13.8677C128.765 14.0481 128.977 14.2737 129.128 14.5444C129.28 14.815 129.356 15.1609 129.356 15.5519C129.356 16.0331 129.25 16.4391 129.022 16.785C128.795 17.1158 128.507 17.4015 128.158 17.612C127.81 17.8225 127.4 17.9729 126.976 18.0782C126.536 18.1684 126.112 18.2286 125.687 18.2286C125.172 18.2286 124.687 18.1684 124.247 18.0481C123.808 17.9278 123.414 17.7474 123.095 17.5218C122.777 17.2812 122.519 16.9955 122.338 16.6346C122.156 16.2887 122.05 15.8677 122.034 15.3714H123.869V15.3865H123.884ZM129.871 9.83759H131.25V7.37142H133.069V9.82255H134.706V11.1609H133.069V15.5218C133.069 15.7173 133.085 15.8677 133.1 16.018C133.115 16.1534 133.16 16.2737 133.206 16.3639C133.266 16.4541 133.357 16.5293 133.463 16.5744C133.585 16.6195 133.736 16.6496 133.949 16.6496C134.07 16.6496 134.206 16.6496 134.327 16.6346C134.449 16.6195 134.585 16.6045 134.706 16.5744V17.9729C134.509 18.003 134.312 18.018 134.115 18.0331C133.918 18.0631 133.736 18.0631 133.524 18.0631C133.039 18.0631 132.66 18.018 132.372 17.9278C132.084 17.8376 131.857 17.7022 131.69 17.5368C131.523 17.3564 131.417 17.1459 131.357 16.8902C131.296 16.6346 131.266 16.3188 131.25 15.988V11.1759H129.871V9.80751V9.83759ZM135.98 9.83759H137.693V10.9504H137.723C137.981 10.4692 138.329 10.1383 138.784 9.92781C139.239 9.71729 139.724 9.61202 140.269 9.61202C140.921 9.61202 141.482 9.71729 141.967 9.95789C142.452 10.1835 142.846 10.4842 143.165 10.8902C143.483 11.2812 143.725 11.7474 143.877 12.2737C144.029 12.8 144.119 13.3714 144.119 13.9579C144.119 14.5143 144.044 15.0406 143.907 15.5519C143.756 16.0631 143.543 16.5293 143.255 16.9203C142.967 17.3113 142.604 17.6271 142.149 17.8677C141.694 18.1083 141.179 18.2286 140.573 18.2286C140.315 18.2286 140.042 18.1985 139.784 18.1534C139.527 18.1083 139.269 18.0331 139.026 17.9278C138.784 17.8225 138.557 17.6872 138.359 17.5218C138.147 17.3564 137.981 17.1609 137.844 16.9504H137.814V21.0255H135.995V9.83759H135.98ZM142.331 13.9278C142.331 13.5669 142.285 13.206 142.179 12.8601C142.088 12.5143 141.937 12.2135 141.74 11.9428C141.543 11.6722 141.3 11.4616 141.027 11.2962C140.739 11.1308 140.406 11.0556 140.042 11.0556C139.284 11.0556 138.708 11.3113 138.314 11.8376C137.935 12.3639 137.738 13.0707 137.738 13.9428C137.738 14.3639 137.783 14.7398 137.89 15.0857C137.996 15.4316 138.132 15.7323 138.344 15.988C138.541 16.2436 138.784 16.4391 139.072 16.5895C139.36 16.7398 139.678 16.815 140.057 16.815C140.482 16.815 140.815 16.7248 141.103 16.5594C141.391 16.394 141.618 16.1684 141.815 15.9128C141.997 15.6421 142.134 15.3413 142.21 14.9955C142.285 14.6346 142.331 14.2887 142.331 13.9278ZM145.529 6.72481H147.348V8.42405H145.529V6.72481ZM145.529 9.83759H147.348V18.003H145.529V9.83759ZM148.97 6.72481H150.789V18.003H148.97V6.72481ZM156.337 18.2286C155.685 18.2286 155.094 18.1233 154.578 17.8977C154.063 17.6722 153.639 17.3865 153.275 17.0105C152.926 16.6346 152.653 16.1684 152.471 15.6421C152.29 15.1158 152.183 14.5293 152.183 13.9128C152.183 13.2962 152.274 12.7248 152.471 12.1985C152.653 11.6722 152.926 11.221 153.275 10.8301C153.623 10.4541 154.063 10.1534 154.578 9.94285C155.094 9.73232 155.685 9.61202 156.337 9.61202C156.989 9.61202 157.58 9.71729 158.095 9.94285C158.61 10.1534 159.035 10.4541 159.399 10.8301C159.747 11.206 160.02 11.6722 160.202 12.1985C160.384 12.7248 160.49 13.2962 160.49 13.9128C160.49 14.5444 160.399 15.1158 160.202 15.6421C160.005 16.1684 159.747 16.6195 159.399 17.0105C159.05 17.3865 158.61 17.6872 158.095 17.8977C157.58 18.1083 157.004 18.2286 156.337 18.2286ZM156.337 16.8C156.731 16.8 157.095 16.7098 157.383 16.5444C157.686 16.3789 157.913 16.1534 158.11 15.8827C158.307 15.612 158.444 15.2962 158.535 14.9654C158.626 14.6195 158.671 14.2737 158.671 13.9128C158.671 13.5669 158.626 13.221 158.535 12.8752C158.444 12.5293 158.307 12.2286 158.11 11.9579C157.913 11.6872 157.671 11.4767 157.383 11.3113C157.079 11.1459 156.731 11.0556 156.337 11.0556C155.943 11.0556 155.579 11.1459 155.291 11.3113C154.988 11.4767 154.76 11.7022 154.563 11.9579C154.366 12.2286 154.23 12.5293 154.139 12.8752C154.048 13.221 154.002 13.5669 154.002 13.9128C154.002 14.2737 154.048 14.6195 154.139 14.9654C154.23 15.3113 154.366 15.612 154.563 15.8827C154.76 16.1534 155.003 16.3789 155.291 16.5444C155.594 16.7248 155.943 16.8 156.337 16.8ZM161.036 9.83759H162.415V7.37142H164.234V9.82255H165.871V11.1609H164.234V15.5218C164.234 15.7173 164.249 15.8677 164.264 16.018C164.279 16.1534 164.325 16.2737 164.37 16.3639C164.431 16.4541 164.522 16.5293 164.628 16.5744C164.749 16.6195 164.901 16.6496 165.113 16.6496C165.234 16.6496 165.371 16.6496 165.492 16.6346C165.613 16.6195 165.75 16.6045 165.871 16.5744V17.9729C165.674 18.003 165.477 18.018 165.28 18.0331C165.083 18.0631 164.901 18.0631 164.689 18.0631C164.204 18.0631 163.825 18.018 163.537 17.9278C163.249 17.8376 163.021 17.7022 162.855 17.5368C162.688 17.3564 162.582 17.1459 162.521 16.8902C162.461 16.6346 162.43 16.3188 162.415 15.988V11.1759H161.036V9.80751V9.80751V9.83759Z" fill="white"/>
<path d="M96.7066 7.92487H88.385L85.8233 0.0752487L83.2464 7.92487L74.9247 7.90983L81.6548 12.767L79.078 20.6166L85.8081 15.7595L92.5382 20.6166L89.9765 12.767L96.7066 7.92487Z" fill="#00B67A"/>
<path d="M90.5525 14.5414L89.9765 12.7669L85.8232 15.7594L90.5525 14.5414Z" fill="#005128"/>
</svg>
